<svg width="24" height="24" viewBox="0 0 24 24" fill="none" xmlns="http://www.w3.org/2000/svg">
<path d="M7.22477 5.976H10.038V13.8615C10.038 17.415 8.33477 18.6555 5.61377 18.6555C4.94777 18.6555 4.09577 18.5445 3.54077 18.3592L3.85577 16.0822C4.32226 16.2321 4.80956 16.307 5.29952 16.3042C6.48452 16.3042 7.22477 15.7672 7.22477 13.8427V5.976ZM12.4808 15.5647C13.221 15.9532 14.406 16.3425 15.609 16.3425C16.905 16.3425 17.5898 15.8055 17.5898 14.973C17.5898 14.214 16.9973 13.7512 15.498 13.233C13.425 12.4927 12.0555 11.3452 12.0555 9.51225C12.0555 7.38375 13.851 5.7735 16.7753 5.7735C18.2003 5.7735 19.2188 6.051 19.959 6.40275L19.3298 8.661C18.5231 8.26674 17.6364 8.06398 16.7385 8.0685C15.5168 8.0685 14.9243 8.64225 14.9243 9.2715C14.9243 10.0672 15.609 10.419 17.238 11.0482C19.4408 11.8627 20.4585 13.0102 20.4585 14.787C20.4585 16.8787 18.867 18.6555 15.4425 18.6555C14.0175 18.6555 12.6105 18.267 11.907 17.8777L12.4808 15.5647Z" fill="#181818"/>
</svg>
